<svg width="488" height="581" viewBox="0 0 488 581" fill="none" xmlns="http://www.w3.org/2000/svg">
<g clip-path="url(#clip0_2_5)">
<path fill-rule="evenodd" clip-rule="evenodd" d="M838.733 367.858C838.04 366.238 835.952 361.308 740.319 345.789C709.463 340.777 652.893 332.217 577.508 323.442C700.279 318.032 778.781 269.075 796.032 230.28C801.93 217.016 800.333 205.302 791.539 197.297C777.246 184.283 745.654 182.829 702.588 193.209C676.918 199.394 647.308 209.753 614.676 223.878C647.019 205.309 674.623 189.226 696.531 176.179C752.154 143.045 752.134 141.183 752.115 138.826C752.105 137.725 751.422 136.594 750.455 136.075C748.887 135.224 745.63 133.425 662.755 180.385C638.36 194.211 596.395 218.434 546.296 249.19C609.933 194.262 638.283 140.996 633.357 117.225C631.976 110.569 627.887 106.359 621.844 105.37C595.231 101.012 548.567 152.912 505.395 217.318C543.987 123.009 531.08 49.1437 497.64 16.212C480.332 -0.830313 458.572 -4.75916 440.861 5.96199C412.549 23.0947 393.311 76.1283 410.591 175.18C390.43 115.743 367.919 58.8658 355.221 57.5139C352.862 57.2423 350.82 58.4553 349.535 60.7668C339.944 78.0442 365.62 190.532 415.662 270.505C344.415 216.669 205.584 215.803 160.574 235.38C147.046 241.264 145.068 247.926 145.792 252.476C148.552 269.89 198.241 285.876 287.929 298.745C287.009 298.742 286.101 298.742 285.187 298.742C112.134 298.742 21.3864 350.092 3.66889 388.379C-2.78095 402.32 -0.678267 415.5 9.59382 425.497C28.2736 443.673 71.5188 449.123 128.228 440.451C171.862 433.779 222.725 419.054 278.448 397.109C203.391 437.098 124.888 482.963 125.673 499.486C125.79 501.978 127.353 503.979 129.966 504.98C152.172 513.492 290.841 455.972 391.075 373.806C327.76 456.069 306.633 546.032 318.525 572.41C321.551 579.127 326.242 580.289 329.123 580.289C329.334 580.289 329.536 580.282 329.724 580.27C336.78 579.875 358.998 569.875 397.214 476.976C383.823 526.464 376.046 566.173 383.386 572.401C385.084 573.846 387.338 574 389.576 572.854C406.539 564.139 449.748 456.887 455.471 369.986C476.064 453.244 538.964 550.501 558.174 556.49C561.921 557.652 563.971 555.751 564.678 554.882C572.726 545.042 547.229 488.376 515.574 427.032C544.434 464.907 576.767 494.205 611.039 513.257C652.595 536.349 696.753 543.796 732.194 533.67C766.504 523.872 786.825 499.67 785.232 470.51C783.693 442.457 761.679 413.56 723.241 389.137C696.204 371.959 661.976 357.171 620.921 344.884C676.163 353.791 723.347 360.879 760.111 365.782C834.716 375.731 836.861 373.015 838.285 371.223C839.036 370.269 839.204 368.981 838.733 367.858Z" fill="#7FB185"/>
</g>
<defs>
<clipPath id="clip0_2_5">
<rect width="488" height="581" fill="white"/>
</clipPath>
</defs>
</svg>
