<svg width="25" height="24" viewBox="0 0 30 29" fill="none" xmlns="http://www.w3.org/2000/svg">
<path d="M25.5614 24.71H21.1164V17.9806C21.1164 16.3759 21.0867 14.3102 18.8045 14.3102C16.4893 14.3102 16.1351 16.0586 16.1351 17.8638V24.7095H11.69V10.8712H15.9573V12.7624H16.017C16.4441 12.0565 17.0612 11.4759 17.8026 11.0822C18.5441 10.6886 19.3821 10.4967 20.2274 10.527C24.7326 10.527 25.5633 13.3917 25.5633 17.1185L25.5614 24.71ZM6.67453 8.97966C6.16435 8.97974 5.66559 8.83358 5.24133 8.55965C4.81708 8.28572 4.48641 7.89633 4.29109 7.44071C4.09577 6.98509 4.04458 6.48372 4.14402 5.99999C4.24346 5.51625 4.48906 5.07189 4.84975 4.72309C5.21044 4.37429 5.67002 4.13671 6.17039 4.04041C6.67075 3.9441 7.1894 3.99339 7.66078 4.18205C8.13217 4.3707 8.53509 4.69025 8.81861 5.10027C9.10213 5.5103 9.25351 5.99239 9.2536 6.48558C9.25366 6.81305 9.18699 7.13732 9.05741 7.43989C8.92783 7.74245 8.7379 8.01738 8.49841 8.24897C8.25892 8.48057 7.97457 8.6643 7.66163 8.78967C7.34869 8.91504 7.01328 8.9796 6.67453 8.97966ZM8.89706 24.71H4.44737V10.8712H8.89706V24.71ZM27.7775 0.00197582H2.21374C1.63351 -0.00435397 1.0744 0.21226 0.6593 0.604218C0.244203 0.996176 0.00708132 1.53141 0 2.09231V26.9073C0.00683896 27.4684 0.243821 28.004 0.658904 28.3964C1.07399 28.7888 1.63323 29.0058 2.21374 28.9998H27.7775C28.3591 29.0069 28.9199 28.7905 29.3367 28.3981C29.7534 28.0058 29.9919 27.4696 30 26.9073V2.09052C29.9917 1.52851 29.753 0.992664 29.3362 0.600716C28.9195 0.208767 28.3589 -0.00722756 27.7775 0.00018466" fill="black"/>
</svg>
