<svg width="25" height="25" viewBox="0 0 25 25" fill="none" xmlns="http://www.w3.org/2000/svg">
<path d="M21.2973 21.0896H17.5931V15.3457C17.5931 13.9761 17.5684 12.2129 15.6665 12.2129C13.7372 12.2129 13.442 13.7052 13.442 15.246V21.0892H9.73779V9.27755H13.2938V10.8917H13.3436C13.6995 10.2892 14.2138 9.79362 14.8316 9.45762C15.4495 9.12163 16.1478 8.95786 16.8522 8.98375C20.6066 8.98375 21.2988 11.4289 21.2988 14.6099L21.2973 21.0896ZM5.5582 7.66298C5.13305 7.66306 4.71742 7.5383 4.36387 7.30449C4.01033 7.07068 3.73477 6.73831 3.572 6.34942C3.40923 5.96052 3.36657 5.53258 3.44944 5.11968C3.53231 4.70679 3.73698 4.32751 4.03755 4.02979C4.33813 3.73207 4.72111 3.52929 5.13808 3.44709C5.55505 3.36489 5.98726 3.40696 6.38008 3.56798C6.7729 3.72901 7.10867 4.00176 7.34493 4.35173C7.5812 4.70171 7.70735 5.1132 7.70743 5.53417C7.70748 5.81368 7.65192 6.09046 7.54394 6.34871C7.43596 6.60696 7.27768 6.84163 7.0781 7.03931C6.87853 7.23699 6.64157 7.39381 6.38079 7.50082C6.12 7.60783 5.84049 7.66293 5.5582 7.66298ZM7.41031 21.0896H3.70224V9.27755H7.41031V21.0896ZM23.144 8.42853e-05H1.84088C1.35735 -0.0053185 0.891425 0.179572 0.54551 0.514128C0.199596 0.848683 0.00199485 1.30553 -0.00390625 1.78429V22.9651C0.00179288 23.4441 0.199278 23.9012 0.545181 24.2361C0.891083 24.571 1.35711 24.7563 1.84088 24.7512H23.144C23.6287 24.7572 24.096 24.5725 24.4433 24.2376C24.7906 23.9027 24.9894 23.445 24.9961 22.9651V1.78276C24.9892 1.30305 24.7902 0.845686 24.443 0.511139C24.0957 0.176591 23.6285 -0.00777126 23.144 -0.00144456" fill="white"/>
</svg>
