<svg width="42" height="34" viewBox="0 0 42 34" fill="none" xmlns="http://www.w3.org/2000/svg">
<path fill-rule="evenodd" clip-rule="evenodd" d="M0.750008 21.2179C0.749511 21.1078 0.771036 20.9987 0.813318 20.897C0.855599 20.7953 0.917784 20.7031 0.996217 20.6257C1.07465 20.5484 1.16775 20.4876 1.27004 20.4468C1.37233 20.406 1.48175 20.386 1.59186 20.3881L6.7187 20.4674C7.1836 20.4746 7.55823 20.858 7.55548 21.3259L7.50507 29.6544C7.50407 29.765 7.525 29.8748 7.56665 29.9773C7.6083 30.0799 7.66986 30.1732 7.74776 30.2518C7.82565 30.3304 7.91835 30.3928 8.02051 30.4354C8.12266 30.478 8.23223 30.5 8.34291 30.5H10.0321C10.2558 30.4998 10.4703 30.4107 10.6283 30.2524C10.7864 30.0941 10.8751 29.8795 10.875 29.6558V0.969174C10.8751 0.858197 10.897 0.748325 10.9396 0.645833C10.9822 0.54334 11.0445 0.450238 11.123 0.371843C11.2016 0.293449 11.2948 0.2313 11.3974 0.188946C11.5 0.146592 11.6099 0.124864 11.7209 0.125003H20.1541C20.2652 0.124725 20.3752 0.146365 20.4778 0.188683C20.5805 0.231001 20.6738 0.293163 20.7524 0.371608C20.8309 0.450052 20.8933 0.543235 20.9358 0.645814C20.9783 0.748393 21.0001 0.858351 21 0.969385V22.9056C20.9998 23.1294 21.0885 23.344 21.2466 23.5024C21.4047 23.6607 21.6192 23.7498 21.8429 23.75H23.5321C23.643 23.7498 23.7528 23.7278 23.8552 23.6852C23.9575 23.6426 24.0505 23.5803 24.1288 23.5017C24.2071 23.4232 24.2691 23.33 24.3114 23.2274C24.3536 23.1249 24.3752 23.015 24.375 22.9041V14.4709C24.3745 14.3604 24.3961 14.2509 24.4385 14.1489C24.4809 14.0468 24.5433 13.9543 24.622 13.8768C24.7007 13.7992 24.7941 13.7381 24.8967 13.6972C24.9994 13.6562 25.1091 13.6362 25.2196 13.6383L30.2804 13.7172C30.3907 13.7193 30.5003 13.6993 30.6028 13.6585C30.7053 13.6177 30.7986 13.5568 30.8772 13.4795C30.9559 13.4021 31.0183 13.3098 31.0609 13.2081C31.1034 13.1063 31.1252 12.997 31.125 12.8867V7.71875C31.1251 7.60781 31.1471 7.49798 31.1897 7.39554C31.2323 7.2931 31.2946 7.20004 31.3732 7.12169C31.4517 7.04334 31.5449 6.98123 31.6475 6.93891C31.75 6.89658 31.8599 6.87486 31.9709 6.875H40.4041C40.6281 6.87478 40.843 6.96348 41.0016 7.12161C41.1602 7.27974 41.2496 7.49436 41.25 7.71833V19.6371C41.25 19.8606 41.1613 20.0749 41.0034 20.233C40.8455 20.3911 40.6314 20.4801 40.4079 20.4805H38.8225C38.7117 20.4803 38.602 20.4582 38.4997 20.4156C38.3974 20.3729 38.3045 20.3106 38.2263 20.232C38.1481 20.1535 38.0861 20.0603 38.0439 19.9578C38.0018 19.8553 37.9802 19.7455 37.9805 19.6346V11.2013C37.9807 11.0904 37.959 10.9806 37.9168 10.8781C37.8745 10.7756 37.8125 10.6824 37.7342 10.6038C37.6559 10.5253 37.563 10.4629 37.4606 10.4203C37.3582 10.3777 37.2485 10.3557 37.1376 10.3555H35.4484C35.2234 10.3561 35.0077 10.4449 34.8476 10.6029C34.6875 10.7609 34.5957 10.9754 34.592 11.2003L34.5135 16.1552C34.5094 16.3803 34.4172 16.5947 34.2568 16.7527C34.0964 16.9106 33.8805 16.9994 33.6554 17H28.5946C28.4836 17.0001 28.3737 17.022 28.2712 17.0645C28.1686 17.1071 28.0755 17.1694 27.9971 17.2479C27.9186 17.3265 27.8564 17.4197 27.814 17.5223C27.7717 17.6249 27.7499 17.7349 27.75 17.8459V26.2791C27.75 26.5035 27.6609 26.7186 27.5023 26.8773C27.3436 27.0359 27.1285 27.125 26.9041 27.125H18.4709C18.3598 27.1253 18.2498 27.1036 18.1472 27.0613C18.0445 27.019 17.9512 26.9568 17.8727 26.8784C17.7941 26.8 17.7318 26.7068 17.6893 26.6042C17.6468 26.5016 17.6249 26.3917 17.625 26.2806V4.34439C17.6252 4.12065 17.5365 3.906 17.3784 3.74765C17.2203 3.58931 17.0058 3.50023 16.7821 3.5H15.0929C14.8692 3.50023 14.6548 3.58928 14.4967 3.74758C14.3386 3.90588 14.2499 4.12047 14.25 4.34417V33.0308C14.2499 33.1418 14.228 33.2517 14.1854 33.3542C14.1429 33.4567 14.0805 33.5498 14.002 33.6282C13.9234 33.7066 13.8302 33.7687 13.7276 33.8111C13.625 33.8534 13.5151 33.8751 13.4041 33.875H4.97087C4.74653 33.875 4.53138 33.7859 4.37276 33.6273C4.21413 33.4686 4.12501 33.2535 4.12501 33.0291V24.5959C4.1252 24.485 4.10355 24.3751 4.0613 24.2726C4.01904 24.1701 3.95701 24.0769 3.87874 23.9984C3.80047 23.9198 3.70749 23.8575 3.60512 23.8148C3.50275 23.7722 3.39299 23.7502 3.2821 23.75H1.59291C1.48222 23.75 1.37261 23.7282 1.27035 23.6858C1.16808 23.6435 1.07516 23.5814 0.99689 23.5031C0.918619 23.4249 0.856531 23.3319 0.814171 23.2297C0.771811 23.1274 0.750008 23.0178 0.750008 22.9071V21.2179Z" fill="#F24E1E"/>
</svg>
