<svg width="207" height="158" viewBox="0 0 207 158" fill="none" xmlns="http://www.w3.org/2000/svg">
<path fill-rule="evenodd" clip-rule="evenodd" d="M80.0379 73.7522C85.2119 72.2493 89.0229 72.561 91.8749 74.6162C97.7509 78.8517 99.4639 90.3323 96.9499 114.814C102.153 92.8802 106.892 83.8113 112.723 82.7544C116.002 82.1631 119.47 84.0988 123.591 89.0212C121.686 83.6283 121.793 80.0678 123.773 77.7986C127.698 73.2987 138.988 74.6043 163.277 83.2432C143.756 73.4738 136.368 67.1443 137.026 61.8423C137.458 58.3589 141.305 55.6025 149.574 53.1943C140.332 53.4643 135.779 52.075 134.487 48.9529C132.674 44.5666 137.9 37.3587 153.317 24.2485C134.975 36.0079 128.221 37.1685 124.83 34.4566C121.945 32.1509 121.887 26.6905 124.945 16.7635C118.931 27.0907 114.009 31.4179 109.198 31.0645C103.788 30.6627 98.7509 24.2092 93.0099 9.45521C97.3609 29.0923 96.6729 34.5499 93.8569 35.9559C91.8579 36.9617 88.9739 35.9063 82.7149 29.1582C85.7659 35.2853 86.1999 39.5707 84.2609 42.6126C80.7679 48.0949 69.9469 49.1856 46.5289 45.485C73.2549 53.0859 83.6539 58.8032 84.5269 65.1701C84.9069 67.9344 83.4439 70.7294 79.9049 73.7907L80.0379 73.7522ZM90.1689 157.215C90.0249 157.257 89.8669 157.268 89.7079 157.241C89.3039 157.172 88.9949 156.876 88.8879 156.507C88.8459 156.361 88.8339 156.204 88.8619 156.044C96.4679 111.505 99.4239 82.638 90.6759 76.3502C86.7439 73.5231 80.1889 74.8644 69.4179 80.7036C68.9129 80.9767 68.2869 80.7889 68.0149 80.285C67.9789 80.2179 67.9509 80.1485 67.9309 80.0786C67.7979 79.6208 67.9959 79.1161 68.4319 78.8794C78.5179 73.4131 82.9829 69.1657 82.4839 65.5171C81.2539 56.5277 50.4389 47.7212 1.1159 36.4264C0.735899 36.3391 0.453891 36.0528 0.351891 35.7034C0.304891 35.5402 0.295907 35.3623 0.336907 35.184C0.462907 34.6273 1.01889 34.2759 1.57589 34.4054C46.3739 44.6635 77.2849 49.8114 82.5419 41.589C85.2739 37.3162 81.3449 28.559 70.1829 14.0294C70.1009 13.9233 70.0439 13.8062 70.0089 13.6859C69.8929 13.2888 70.0229 12.8429 70.3709 12.5757C70.8229 12.2283 71.4729 12.3117 71.8219 12.7639C83.6119 28.11 90.7279 35.3361 92.9709 34.1973C97.7329 31.8237 86.7139 -8.27716 82.0089 -25.4012C81.8579 -25.9531 82.1849 -26.5533 82.7329 -26.6749C83.2799 -26.8261 83.8439 -26.5065 84.0009 -25.9625L84.0049 -25.9496C91.7499 2.23782 100.187 28.4137 109.404 29.0899C115.533 29.5334 123.052 18.8707 133.729 -5.51521C133.96 -6.03853 134.57 -6.27716 135.094 -6.04727C135.386 -5.91822 135.589 -5.67085 135.672 -5.38616C135.737 -5.16102 135.727 -4.91207 135.626 -4.68098C129.339 9.67558 121.522 29.1923 126.187 32.9132C132.192 37.7026 160.009 18.2132 186.427 -1.48423C186.883 -1.82491 187.532 -1.73041 187.874 -1.27061C187.95 -1.16857 188.004 -1.057 188.038 -0.941452C188.155 -0.537243 188.019 -0.0861778 187.662 0.179058C160.805 20.2049 133.72 41.5704 136.468 48.2112C138.5 53.1197 157.607 50.9219 171.803 48.8421C172.321 48.7651 172.807 49.0883 172.947 49.5787C172.961 49.6232 172.971 49.67 172.977 49.7177C173.061 50.2827 172.689 50.8131 172.104 50.8926C158.305 52.916 139.874 56.2811 139.141 62.1346C138.105 70.4161 170.785 85.2936 206.254 100.137C206.554 100.263 206.765 100.514 206.85 100.805C206.913 101.024 206.905 101.265 206.811 101.493C206.591 102.02 205.986 102.271 205.458 102.05C161.481 83.6462 131.025 72.7091 125.367 79.188C122.783 82.1433 124.957 89.3309 132.21 101.81C132.254 101.886 132.287 101.963 132.311 102.044C132.439 102.489 132.255 102.982 131.837 103.227C131.341 103.513 130.71 103.347 130.421 102.852C122.828 89.7883 117.328 84.0579 113.114 84.8195C104.582 86.3891 98.0479 114.549 90.9009 156.395C90.8329 156.799 90.5379 157.108 90.1689 157.215Z" fill="#FFB6A0"/>
<path d="M109 62.2C109 62.7523 109.448 63.2 110 63.2C110.552 63.2 111 62.7523 111 62.2H109ZM111 57C111 56.4477 110.552 56 110 56C109.448 56 109 56.4477 109 57H111ZM122 57C122 63.6274 116.627 69 110 69V71C117.732 71 124 64.732 124 57H122ZM110 69C103.373 69 98 63.6274 98 57H96C96 64.732 102.268 71 110 71V69ZM98 57C98 50.3726 103.373 45 110 45V43C102.268 43 96 49.268 96 57H98ZM110 45C116.627 45 122 50.3726 122 57H124C124 49.268 117.732 43 110 43V45ZM111 62.2V57H109V62.2H111ZM110.3 51.8C110.3 51.9657 110.166 52.1 110 52.1V54.1C111.27 54.1 112.3 53.0703 112.3 51.8H110.3ZM110 52.1C109.834 52.1 109.7 51.9657 109.7 51.8H107.7C107.7 53.0703 108.73 54.1 110 54.1V52.1ZM109.7 51.8C109.7 51.6343 109.834 51.5 110 51.5V49.5C108.73 49.5 107.7 50.5297 107.7 51.8H109.7ZM110 51.5C110.166 51.5 110.3 51.6343 110.3 51.8H112.3C112.3 50.5297 111.27 49.5 110 49.5V51.5Z" fill="#FFB6A0"/>
<circle cx="110" cy="52" r="1" fill="#FFFFFF"/>
</svg>
